<?xml version="1.0" standalone="no"?>
<!DOCTYPE svg PUBLIC "-//W3C//DTD SVG 20010904//EN"
 "http://www.w3.org/TR/2001/REC-SVG-20010904/DTD/svg10.dtd">
<svg version="1.0" xmlns="http://www.w3.org/2000/svg"
 width="700.000000pt" height="700.000000pt" viewBox="0 0 700.000000 700.000000"
 preserveAspectRatio="xMidYMid meet">
<metadata>
Created by potrace 1.11, written by Peter Selinger 2001-2013
</metadata>
<g transform="translate(0.000000,700.000000) scale(0.100000,-0.100000)"
fill="#000000" stroke="none">
<path d="M3285 6994 c-771 -62 -1401 -309 -1990 -778 -129 -102 -409 -382
-511 -511 -429 -538 -678 -1129 -761 -1805 -24 -200 -24 -600 0 -800 74 -602
281 -1140 630 -1632 38 -54 72 -100 77 -103 4 -3 20 28 34 68 93 249 278 496
467 623 75 50 195 106 255 119 32 6 32 6 53 -57 182 -557 234 -1194 127 -1543
-9 -27 -16 -51 -16 -51 0 -1 44 -27 98 -57 442 -250 859 -386 1372 -449 141
-17 621 -17 765 0 423 52 810 164 1158 338 195 98 309 165 303 181 -58 150
-84 518 -56 778 28 256 111 639 182 836 l13 37 68 -23 c120 -41 233 -109 339
-204 119 -108 272 -341 339 -518 17 -46 35 -80 39 -78 5 3 39 49 77 103 349
492 556 1030 630 1632 24 200 24 600 0 800 -74 598 -291 1162 -631 1635 -211
293 -518 600 -811 811 -470 338 -1041 559 -1625 629 -129 15 -521 27 -625 19z
m1034 -1464 c-13 -50 -20 -112 -21 -185 -1 -135 25 -227 96 -334 43 -65 138
-161 159 -161 5 0 6 -26 2 -57 -6 -58 9 -191 24 -206 4 -4 11 23 14 61 11 113
33 159 89 188 49 25 90 18 130 -23 45 -48 58 -88 58 -177 0 -230 -177 -483
-324 -463 l-41 6 -34 -92 c-53 -143 -144 -320 -237 -460 -168 -251 -372 -415
-590 -472 -75 -19 -213 -19 -288 0 -326 85 -622 414 -810 901 l-48 122 -39 -5
c-147 -20 -328 237 -329 467 0 134 65 222 154 207 78 -13 110 -65 125 -205 l7
-67 12 40 c7 22 15 72 19 112 6 69 7 71 36 77 16 3 53 6 81 6 62 0 262 24 369
45 510 98 995 346 1328 678 41 41 75 74 76 73 0 0 -8 -35 -18 -76z m-1386
-2297 c66 -90 179 -187 269 -231 134 -66 188 -77 383 -77 215 0 315 20 536
107 66 26 79 35 94 66 l17 37 27 -34 c57 -75 146 -170 249 -264 59 -55 108
-102 110 -106 3 -9 -87 -169 -338 -601 -468 -805 -771 -1315 -780 -1315 -5 0
-118 187 -251 415 -132 228 -383 659 -556 957 l-315 543 78 72 c108 98 217
211 271 281 l45 58 10 147 c5 81 12 154 14 162 3 9 24 -22 52 -75 26 -50 64
-114 85 -142z"/>
<path d="M3002 2690 c-80 -19 -106 -78 -106 -240 1 -180 40 -240 156 -240 79
0 231 48 312 98 32 20 43 22 63 13 31 -14 88 -14 114 0 17 9 33 4 88 -25 84
-44 228 -86 295 -86 64 0 106 24 132 76 16 32 19 61 19 169 0 148 -14 194 -68
222 -67 34 -222 8 -362 -62 -72 -36 -83 -39 -105 -28 -32 16 -79 16 -108 -1
-21 -11 -31 -8 -96 25 -110 58 -266 95 -334 79z"/>
</g>
</svg>
